<svg width="166" height="34" viewBox="0 0 166 34" fill="none" xmlns="http://www.w3.org/2000/svg">
<path d="M30.5127 29.3521C29.5513 28.5304 29.0723 27.3815 29.0723 25.9035C29.0723 24.3148 29.6996 23.0959 30.9559 22.247C31.7691 21.693 32.9879 21.2685 34.6125 20.9719L38.9628 20.169C38.944 19.3013 38.7139 18.6365 38.2707 18.1745C37.865 17.7313 37.2547 17.5097 36.4416 17.5097C35.7955 17.5097 35.2313 17.7091 34.7522 18.1046C34.2715 18.5018 33.9664 19.0422 33.8385 19.7258H29.6553C29.8394 18.5257 30.2689 17.5182 30.944 16.7068C31.6173 15.8937 32.4407 15.2902 33.409 14.8913C34.3789 14.4941 35.3983 14.2964 36.4706 14.2964C37.4132 14.2964 38.2997 14.4259 39.1299 14.6851C39.9617 14.9442 40.6726 15.3311 41.2624 15.8493C41.8539 16.3659 42.2835 16.9676 42.5511 17.6495C42.8188 18.3331 42.9841 19.0303 43.0489 19.7411C43.1137 20.452 43.1461 21.3708 43.1461 22.4976V30.2556H38.9355V28.2338C38.6406 28.8987 38.2247 29.3981 37.6894 29.7305C36.8405 30.3033 35.6762 30.5897 34.1982 30.5897C32.7203 30.5897 31.4742 30.1789 30.5144 29.3572L30.5127 29.3521ZM37.1627 26.928C37.865 26.5956 38.344 26.1439 38.6031 25.5711C38.8622 24.9983 39.0088 24.204 39.0463 23.188L35.7495 23.8255C35.2142 23.9363 34.7932 24.0574 34.488 24.1852C34.1829 24.3148 33.9289 24.4716 33.726 24.6557C33.4124 24.9694 33.2555 25.3393 33.2555 25.7637C33.2555 26.282 33.4499 26.674 33.8368 26.9417C34.2238 27.2093 34.7233 27.344 35.3335 27.344C35.9796 27.344 36.5899 27.2059 37.1627 26.928Z" fill="#384B40"/>
<path d="M48.2142 30.2522C47.0499 30.2522 46.155 29.9794 45.5276 29.4356C44.9003 28.8918 44.585 28.0736 44.585 26.9843V9.11247H48.7955V25.624C48.7955 26.4184 49.1552 26.8155 49.8763 26.8155H50.957V30.2505H48.2142V30.2522Z" fill="#384B40"/>
<path d="M52.5094 12.6173C52.0287 12.2013 51.79 11.6524 51.79 10.9689C51.79 10.2853 52.0304 9.76024 52.5094 9.33407C52.9901 8.9096 53.5714 8.69652 54.255 8.69652C54.9386 8.69652 55.5199 8.9096 56.0006 9.33407C56.4813 9.75853 56.72 10.304 56.72 10.9689C56.72 11.6337 56.4847 12.2013 56.0142 12.6173C55.5437 13.0332 54.9573 13.2412 54.255 13.2412C53.5527 13.2412 52.9901 13.0332 52.5094 12.6173ZM56.3603 30.2522H52.1497V14.6271H56.3603V30.2522Z" fill="#384B40"/>
<path d="M65.9992 30.2522H62.0103L57.1895 14.6271H61.6779L64.1428 24.2415L66.8021 14.6271H70.4314L73.0907 24.1852L75.6392 14.6271H80.1003L75.1687 30.2522H71.207L68.6585 20.3071L65.9992 30.2522Z" fill="#384B40"/>
<path d="M81.32 12.6173C80.8392 12.2013 80.6006 11.6524 80.6006 10.9689C80.6006 10.2853 80.8409 9.76024 81.32 9.33407C81.8007 8.9096 82.382 8.69652 83.0656 8.69652C83.7491 8.69652 84.3304 8.9096 84.8111 9.33407C85.2919 9.75853 85.5305 10.304 85.5305 10.9689C85.5305 11.6337 85.2953 12.2013 84.8248 12.6173C84.3543 13.0332 83.7679 13.2412 83.0656 13.2412C82.3632 13.2412 81.8007 13.0332 81.32 12.6173ZM85.1708 30.2522H80.9603V14.6271H85.1708V30.2522Z" fill="#384B40"/>
<path d="M92.1234 30.2522C90.9591 30.2522 90.0642 29.9794 89.4351 29.4356C88.8078 28.8918 88.4924 28.0736 88.4924 26.9843V17.9529H86.2764V14.6288H88.4924V9.11588H92.703V14.6288H95.5566V17.9529H92.703V25.6274C92.703 25.9973 92.7763 26.2871 92.9246 26.5002C93.0729 26.7133 93.3678 26.8189 93.811 26.8189H95.5294V30.2539H92.1217L92.1234 30.2522Z" fill="#384B40"/>
<path d="M97.0017 30.2522V9.11247H101.212V16.4545C101.748 15.6601 102.348 15.101 103.012 14.7788C103.677 14.4566 104.453 14.2947 105.339 14.2947C107.833 14.2947 109.485 15.1811 110.298 16.954C110.574 17.5643 110.747 18.1831 110.811 18.8104C110.876 19.4377 110.908 20.2969 110.908 21.3861V30.2522H106.725V21.3316C106.725 20.556 106.669 19.9321 106.558 19.4616C106.447 18.9911 106.263 18.616 106.004 18.3399C105.598 17.9154 104.988 17.7023 104.175 17.7023C103.121 17.7023 102.383 17.9972 101.959 18.5888C101.7 18.9024 101.511 19.3184 101.391 19.8349C101.27 20.3531 101.211 21.035 101.211 21.8856V30.2522H97H97.0017Z" fill="#384B40"/>
<path d="M124.081 30.2522C122.917 30.2522 122.022 29.9794 121.393 29.4356C120.766 28.8918 120.45 28.0736 120.45 26.9843V9.11247H124.661V25.624C124.661 26.4184 125.022 26.8155 125.742 26.8155H126.822V30.2505H124.079L124.081 30.2522Z" fill="#384B40"/>
<path d="M117.921 12.3837H119.361V9.11247H116.896C115.492 9.11247 114.411 9.46193 113.656 10.1523C112.895 10.8478 112.519 11.8212 112.519 13.0741V30.2539H116.76V17.9239H119.361V14.6271H116.76V13.6844C116.76 12.8167 117.145 12.3855 117.921 12.3855V12.3837Z" fill="#384B40"/>
<path d="M130.68 29.5584C129.451 28.8748 128.496 27.9099 127.813 26.6638C127.129 25.4177 126.788 23.9806 126.788 22.3561C126.788 20.7315 127.129 19.3917 127.813 18.1728C128.496 16.954 129.452 16.0028 130.68 15.3192C131.907 14.6356 133.315 14.2947 134.904 14.2947C136.493 14.2947 137.901 14.6356 139.13 15.3192C140.357 16.0028 141.309 16.954 141.984 18.1728C142.657 19.3917 142.994 20.7861 142.994 22.3561C142.994 23.9261 142.657 25.4177 141.984 26.6638C141.309 27.9099 140.362 28.8765 139.144 29.5584C137.925 30.2419 136.512 30.5829 134.904 30.5829C133.297 30.5829 131.907 30.2419 130.68 29.5584ZM137.62 25.6938C138.303 24.8534 138.644 23.7403 138.644 22.3561C138.644 21.0452 138.303 19.973 137.62 19.1428C136.936 18.3126 136.031 17.8967 134.904 17.8967C133.777 17.8967 132.864 18.3075 132.161 19.1291C131.459 19.9508 131.109 21.0264 131.109 22.3561C131.109 23.6857 131.461 24.8551 132.161 25.6938C132.864 26.5343 133.777 26.9536 134.904 26.9536C136.031 26.9536 136.936 26.5343 137.62 25.6938Z" fill="#384B40"/>
<path d="M151.473 30.2522H147.484L142.663 14.6271H147.152L149.616 24.2415L152.276 14.6271H155.905L158.564 24.1852L161.113 14.6271H165.574L160.642 30.2522H156.681L154.132 20.3071L151.473 30.2522Z" fill="#384B40"/>
<path d="M25.116 18.362C24.146 17.3409 22.8232 16.5534 21.1901 16.0113C21.1338 15.9857 21.0639 15.9601 20.9702 15.9295C20.5542 15.8033 20.1196 15.684 19.6661 15.5834C21.4236 13.4918 23.2886 10.7063 23.2323 7.2339C23.1249 3.75636 20.5236 1.23514 16.9062 1.10899C13.3026 0.976029 10.0313 2.88527 8.3999 4.04445C8.08454 4.27117 7.76406 4.51153 7.44869 4.757C6.08836 3.41542 4.682 2.14885 3.441 1.02035L2.90573 0.529404L-0.00585938 3.74272L0.536228 4.23367C1.73291 5.31784 3.08813 6.54009 4.37346 7.80667C3.05063 9.42611 2.01077 11.2092 1.27265 13.0997C-0.29054 17.1074 -0.302473 21.1406 1.24708 24.7887C2.64662 27.9645 5.1917 29.8618 8.05897 29.8618C8.21068 29.8618 8.36751 29.855 8.52605 29.8498C11.6695 29.6163 14.2606 27.1905 15.28 23.505L15.2919 23.442C15.6073 22.1123 15.7334 20.7639 15.6635 19.4275C15.834 19.4394 15.9976 19.453 16.1681 19.465C16.5022 19.4837 16.8363 19.5161 17.1636 19.5468C18.8581 19.7172 20.7486 20.0633 21.9708 21.3486C23.7471 23.2204 23.0601 25.237 22.6834 26.0177C21.8703 27.6815 19.8161 29.364 17.2387 29.1185L17.1636 29.1117C16.3948 29.0674 15.5698 28.8526 14.7123 28.4946L11.4803 31.7216C13.3196 32.7495 15.1351 33.3291 16.8619 33.4416C17.1517 33.4672 17.4415 33.4723 17.7313 33.4723C21.456 33.4723 24.9267 31.292 26.5786 27.915C28.1912 24.6011 27.644 21.0281 25.116 18.362ZM11.0848 22.4004C10.5683 24.2346 9.46533 25.4313 8.21068 25.5251C7.0515 25.6137 5.93664 24.6864 5.21727 23.0618C3.65408 19.3627 4.46039 14.8964 7.36005 11.0387C10.7507 15.1538 11.9354 18.7694 11.0848 22.3987V22.4004ZM14.593 14.6254C13.7236 12.4383 12.3565 10.2461 10.4148 7.93963C10.5717 7.82031 10.7353 7.70098 10.9007 7.57995C12.0854 6.73613 14.4106 5.32977 16.7426 5.43717C17.3733 5.46274 18.841 5.69628 18.8973 7.34641C18.9229 9.19939 17.3222 11.8962 14.593 14.6237V14.6254Z" fill="#384B40"/>
</svg>
